<svg width="14" height="26" viewBox="0 0 14 26" fill="none" xmlns="http://www.w3.org/2000/svg">
<path fill-rule="evenodd" clip-rule="evenodd" d="M5.38259 25.4239L2.36267 23.7812C1.64967 23.3919 1.05421 22.8178 0.63858 22.1191C0.222946 21.4204 0.00239873 20.6226 0 19.8093V12.8302H6.23247V24.916C6.23542 25.017 6.21139 25.117 6.16287 25.2055C6.11434 25.2941 6.04308 25.3681 5.95644 25.4199C5.86981 25.4717 5.77094 25.4993 5.67006 25.5C5.56918 25.5007 5.46994 25.4744 5.38259 25.4239Z" fill="#E9BE74"/>
<path fill-rule="evenodd" clip-rule="evenodd" d="M9.30622 16.7425L1.34848 18.7284C0 19.0717 0 19.6391 0 19.6391V8.1774C0.0001913 6.9121 0.422685 5.68317 1.20033 4.68593C1.97798 3.68868 3.06615 2.98035 4.29191 2.67352L12.8927 0.51736C12.9778 0.495798 13.0666 0.494301 13.1523 0.512985C13.238 0.531669 13.3182 0.570025 13.3866 0.625031C13.455 0.680038 13.5097 0.750193 13.5464 0.829972C13.5831 0.90975 13.6008 0.996973 13.5981 1.08477V11.2471C13.596 12.5109 13.1727 13.7379 12.3952 14.7334C11.6177 15.7289 10.5306 16.436 9.30622 16.7425Z" fill="url(#paint0_linear_142_6143)"/>
<defs>
<linearGradient id="paint0_linear_142_6143" x1="0" y1="10.0726" x2="13.5981" y2="10.0726" gradientUnits="userSpaceOnUse">
<stop stop-color="#E24329"/>
<stop offset="0.59" stop-color="#FC6D26"/>
<stop offset="1" stop-color="#FCA326"/>
</linearGradient>
</defs>
</svg>
